<?xml version="1.0" standalone="yes"?>

<svg version="1.1" viewBox="0.0 0.0 467.0 467.0" fill="none" stroke="none" stroke-linecap="square" stroke-miterlimit="10" xmlns="http://www.w3.org/2000/svg" xmlns:xlink="http://www.w3.org/1999/xlink"><clipPath id="p.0"><path d="m0 0l467.0 0l0 467.0l-467.0 0l0 -467.0z" clip-rule="nonzero"></path></clipPath><g clip-path="url(#p.0)"><path fill="#000000" fill-opacity="0.0" d="m0 0l467.42783 0l0 467.42783l-467.42783 0z" fill-rule="nonzero"></path><path fill="#000000" fill-opacity="0.0" d="m0 0l462.86615 0l0 461.70078l-462.86615 0z" fill-rule="nonzero"></path><path fill="#000000" d="m0 0l451.43307 0l0 67.43307l-451.43307 0z" fill-rule="nonzero"></path><path stroke="#000000" stroke-width="2.0" stroke-linejoin="round" stroke-linecap="butt" d="m0 0l451.43307 0l0 67.43307l-451.43307 0z" fill-rule="nonzero"></path><path fill="#000000" d="m384.0 0l78.834656 0l0 445.70078l-78.834656 0z" fill-rule="nonzero"></path><path stroke="#000000" stroke-width="2.0" stroke-linejoin="round" stroke-linecap="butt" d="m384.0 0l78.834656 0l0 445.70078l-78.834656 0z" fill-rule="nonzero"></path><path fill="#000000" d="m0 394.27036l462.86615 0l0 67.433044l-462.86615 0z" fill-rule="nonzero"></path><path stroke="#000000" stroke-width="2.0" stroke-linejoin="round" stroke-linecap="butt" d="m0 394.27036l462.86615 0l0 67.433044l-462.86615 0z" fill-rule="nonzero"></path><path fill="#000000" d="m0 1.1417323l78.83465 0l0 266.29922l-78.83465 0z" fill-rule="nonzero"></path><path stroke="#000000" stroke-width="2.0" stroke-linejoin="round" stroke-linecap="butt" d="m0 1.1417323l78.83465 0l0 266.29922l-78.83465 0z" fill-rule="nonzero"></path><path fill="#000000" d="m1.1338583 130.20998l307.43307 0l0 67.433075l-307.43307 0z" fill-rule="nonzero"></path><path stroke="#000000" stroke-width="2.0" stroke-linejoin="round" stroke-linecap="butt" d="m1.1338583 130.20998l307.43307 0l0 67.433075l-307.43307 0z" fill-rule="nonzero"></path><path fill="#000000" d="m0 260.41995l308.56693 0l0 67.433075l-308.56693 0z" fill-rule="nonzero"></path><path stroke="#000000" stroke-width="2.0" stroke-linejoin="round" stroke-linecap="butt" d="m0 260.41995l308.56693 0l0 67.433075l-308.56693 0z" fill-rule="nonzero"></path></g></svg>

